<?xml version="1.0" standalone="no"?>
<!DOCTYPE svg PUBLIC "-//W3C//DTD SVG 20010904//EN" "http://www.w3.org/TR/2001/REC-SVG-20010904/DTD/svg10.dtd">
<!-- Created using Krita: https://krita.org -->
<svg xmlns="http://www.w3.org/2000/svg" 
    xmlns:xlink="http://www.w3.org/1999/xlink"
    xmlns:krita="http://krita.org/namespaces/svg/krita"
    xmlns:sodipodi="http://sodipodi.sourceforge.net/DTD/sodipodi-0.dtd"
    width="120pt"
    height="120pt"
    viewBox="0 0 120 120">
<defs/>
<g id="group0" transform="translate(8.33859344306538, 10.3658779279664)" fill="none">
  <g id="group1" fill="none">
   <path id="shape0" transform="matrix(0.0084375 0 0 0.0084375 0 1.77635683940025e-15)" fill="#000000" stroke-opacity="0" stroke="#000000" stroke-width="0" stroke-linecap="square" stroke-linejoin="bevel" d="M12189.5 11212.4C11241.7 9574.5 9753.61 8425.19 8024.56 7937.77C8987.73 7448.16 9725.57 6605.02 10083.1 5585.42C10440.7 4565.83 10391 3446.52 9944.58 2462.6C9498.14 1478.67 8688.53 704.181 7685.78 301.792C6683.03 -100.597 5562.63 -100.597 4559.88 301.792C3557.14 704.181 2747.53 1478.67 2301.09 2462.6C1854.65 3446.52 1804.99 4565.83 2162.54 5585.42C2520.09 6605.02 3257.94 7448.16 4221.11 7937.77C2492.05 8424.59 1004.01 9573.9 56.1464 11212.4C14.2877 11278.3 -5.03201 11356 1.11942 11433.8C7.27085 11511.5 38.5656 11585.3 90.2543 11643.7C141.943 11702.2 211.271 11742.2 287.718 11757.8C364.164 11773.5 443.655 11763.8 514.127 11730.3C584.599 11696.8 642.296 11641.3 678.463 11572.1C1830.17 9582.29 3864.99 8394.61 6122.83 8394.61C8380.68 8394.61 10415.5 9582.29 11567.2 11572.1C11603.4 11641.3 11661.1 11696.8 11731.5 11730.3C11802 11763.8 11881.5 11773.5 11957.9 11757.8C12034.4 11742.2 12103.7 11702.2 12155.4 11643.7C12207.1 11585.3 12238.4 11511.5 12244.5 11433.8C12250.7 11356 12231.4 11278.3 12189.5 11212.4M2645.53 4197.87C2645.53 3275.99 3012.14 2390.92 3664.01 1739.05C4315.88 1087.18 5200.95 720.576 6122.83 720.576C7044.72 720.576 7929.78 1087.18 8581.65 1739.05C9233.52 2390.92 9600.13 3275.99 9600.13 4197.87C9600.13 5119.76 9233.52 6004.83 8581.65 6656.7C7929.78 7308.57 7044.72 7675.17 6122.83 7675.17C5201.29 7674.06 4316.87 7307.1 3665.24 6655.47C3013.61 6003.84 2646.64 5119.42 2645.53 4197.87" sodipodi:nodetypes="ccccccccccccccccccccccccccccccc"/>
   <path id="shape1" transform="translate(5.23785691678521, 96.0395517673627)" fill="none" stroke="#000000" stroke-width="6" stroke-linecap="square" stroke-linejoin="miter" stroke-miterlimit="2" d="M0 0L92.0653 0.169706" sodipodi:nodetypes="cc"/>
  </g>
  <ellipse id="shape2" transform="translate(20.9414084824456, 4.75412306635489)" rx="31.0800020438826" ry="30.4200020004797" cx="31.0800020438826" cy="30.4200020004797" fill="#000000" fill-rule="evenodd"/>
  <path id="shape0" transform="matrix(0.999999973300457 0 0 0.999999973300457 7.62140760649596 69.4341273198403)" fill="#000000" fill-rule="evenodd" stroke-opacity="0" stroke="#000000" stroke-width="0" stroke-linecap="square" stroke-linejoin="bevel" d="M91.68 25.962C66.72 1.06712 69.5556 8.88178e-16 44.04 0C22.3644 1.32 11.64 5.10512 0 20.64C-3.10862e-15 35.5749 18.5244 24.48 44.04 24.48C69.5556 24.48 63 26.4969 91.68 25.962Z" sodipodi:nodetypes="ccccc"/>
 </g>
</svg>
